<svg width="0" height="0" class="hidden">
  <symbol xmlns="http://www.w3.org/2000/svg" viewBox="0 0 16 20" id="bag">
    <g>
      <path fill-rule="evenodd" clip-rule="evenodd" d="M1 4C0.447715 4 0 4.44772 0 5V19C0 19.5523 0.447716 20 1 20H15C15.5523 20 16 19.5523 16 19V5C16 4.44772 15.5523 4 15 4H12V2.93336C12 1.31331 10.6867 0 9.06664 0H7C5.34315 0 4 1.34315 4 3V4H1ZM14 18H2V6H14V18ZM6 3C6 2.44772 6.44772 2 7 2H9.06664C9.58212 2 10 2.41788 10 2.93336V4H6V3Z"></path>
      <path d="M7 9C6.44772 9 6 8.55229 6 8V7H4V8C4 9.65685 5.34315 11 7 11H9.06664C10.6867 11 12 9.68669 12 8.06664V7H10V8.06664C10 8.58212 9.58212 9 9.06664 9H7Z"></path>
    </g>
  </symbol>
  <symbol xmlns="http://www.w3.org/2000/svg" viewBox="0 0 16 16" id="board">
    <path fill-rule="evenodd" clip-rule="evenodd" d="M9 10V14H14V10H9ZM14 8H9V2H14V8ZM16 15.1136C16 15.6031 15.602 16 15.1111 16H0.888889C0.397969 16 0 15.6031 0 15.1136V0.886403C0 0.396856 0.397969 0 0.888889 0H15.1111C15.602 0 16 0.396856 16 0.886404V15.1136ZM7 2H2V14H7V2Z"></path>
  </symbol>
  <symbol xmlns="http://www.w3.org/2000/svg" viewBox="0 0 350 61" id="logo">
    <g>
      <path d="M101.785 37.6008C101.785 33.78 103.288 30.1158 105.961 27.4141C108.635 24.7124 112.261 23.1946 116.043 23.1946C119.824 23.1946 123.45 24.7124 126.124 27.4141C128.798 30.1158 130.3 33.78 130.3 37.6008C130.3 41.4216 128.798 45.0858 126.124 47.7875C123.45 50.4892 119.824 52.007 116.043 52.007C112.261 52.007 108.635 50.4892 105.961 47.7875C103.288 45.0858 101.785 41.4216 101.785 37.6008ZM91.8032 37.6008C91.8032 49.3476 100.703 61 116.043 61C131.382 61 140.29 49.3476 140.29 37.6008C140.29 25.854 131.39 14.2016 116.019 14.2016C100.649 14.2016 91.8032 25.8619 91.8032 37.6008Z"></path>
      <path d="M181.247 37.6008C181.247 33.78 182.749 30.1158 185.423 27.4141C188.097 24.7124 191.723 23.1946 195.504 23.1946C199.285 23.1946 202.912 24.7124 205.586 27.4141C208.259 30.1158 209.761 33.78 209.761 37.6008C209.761 41.4216 208.259 45.0858 205.586 47.7875C202.912 50.4892 199.285 52.007 195.504 52.007C191.723 52.007 188.097 50.4892 185.423 47.7875C182.749 45.0858 181.247 41.4216 181.247 37.6008ZM171.257 37.6008C171.257 49.3476 180.157 61 195.504 61C210.851 61 219.744 49.3476 219.744 37.6008C219.744 25.854 210.851 14.2016 195.504 14.2016C180.157 14.2016 171.257 25.8619 171.257 37.6008Z"></path>
      <path d="M260.709 37.6008C260.709 33.78 262.211 30.1158 264.884 27.4141C267.558 24.7124 271.184 23.1946 274.966 23.1946C278.747 23.1946 282.373 24.7124 285.047 27.4141C287.721 30.1158 289.223 33.78 289.223 37.6008C289.223 41.4216 287.721 45.0858 285.047 47.7875C282.373 50.4892 278.747 52.007 274.966 52.007C271.184 52.007 267.558 50.4892 264.884 47.7875C262.211 45.0858 260.709 41.4216 260.709 37.6008ZM250.718 37.6008C250.718 49.3476 259.618 61 274.966 61C290.313 61 299.205 49.3476 299.205 37.6008C299.205 25.854 290.313 14.2016 274.966 14.2016C259.618 14.2016 250.726 25.8619 250.726 37.6008H250.718Z"></path>
      <path d="M0 32.0067C0 20.7241 7.44392 14.2016 16.0714 14.2016C22.6977 14.2016 27.5098 17.4117 29.2384 22.0695H29.4175C31.1461 17.3881 35.9582 14.2016 42.5845 14.2016C51.212 14.2016 58.6559 20.7241 58.6559 32.0067V59.7962H49.2186V32.0933C49.2186 26.7745 45.8549 23.7533 41.9538 23.7533C37.4143 23.7533 34.0505 26.4992 34.0505 33.3836V59.7962H24.6054V33.3836C24.6054 26.4992 21.2494 23.7533 16.7099 23.7533C12.8166 23.7533 9.44506 26.7745 9.44506 32.0933V59.7962H0V32.0067Z"></path>
      <path d="M341.945 16.9868H332.345V59.8119H341.945V16.9868Z"></path>
      <path d="M337.157 5.72059e-06C338.217 -0.00155089 339.253 0.3146 340.135 0.908455C341.017 1.50231 341.705 2.34718 342.112 3.33616C342.518 4.32515 342.626 5.41379 342.42 6.46435C342.214 7.51492 341.704 8.48018 340.955 9.23801C340.206 9.99583 339.252 10.5122 338.212 10.7217C337.173 10.9312 336.096 10.8244 335.116 10.415C334.137 10.0055 333.3 9.31168 332.711 8.42133C332.122 7.53097 331.807 6.48409 331.807 5.41314C331.807 3.97885 332.371 2.60319 333.374 1.58825C334.377 0.573321 335.737 0.00209044 337.157 5.72059e-06Z"></path>
      <path d="M347.1 18.411C346.947 18.411 346.801 18.4723 346.693 18.5815C346.585 18.6907 346.524 18.8388 346.524 18.9932C346.524 19.1476 346.585 19.2957 346.693 19.4049C346.801 19.5141 346.947 19.5754 347.1 19.5754C347.195 19.5762 347.289 19.551 347.371 19.5025C347.453 19.4541 347.521 19.3841 347.567 19.3L347.894 19.5046C347.809 19.6354 347.694 19.7432 347.558 19.8186C347.422 19.8941 347.271 19.9348 347.116 19.9373C346.868 19.9373 346.63 19.8379 346.455 19.6608C346.28 19.4837 346.181 19.2436 346.181 18.9932C346.181 18.7428 346.28 18.5026 346.455 18.3256C346.63 18.1485 346.868 18.049 347.116 18.049C347.271 18.048 347.424 18.0872 347.561 18.163C347.697 18.2387 347.812 18.3485 347.894 18.4818L347.668 18.7099C347.613 18.6095 347.529 18.5277 347.428 18.4746C347.327 18.4215 347.213 18.3994 347.1 18.411Z"></path>
      <path d="M345.021 18.9931C345.02 19.3918 345.135 19.782 345.353 20.1143C345.571 20.4466 345.882 20.7059 346.246 20.8596C346.61 21.0133 347.011 21.0543 347.399 20.9774C347.786 20.9006 348.142 20.7094 348.421 20.428C348.701 20.1467 348.891 19.7878 348.969 19.3969C349.046 19.0059 349.007 18.6005 348.857 18.232C348.706 17.8635 348.451 17.5485 348.123 17.3268C347.795 17.1052 347.409 16.9868 347.014 16.9868C346.487 16.9868 345.981 17.1979 345.608 17.574C345.234 17.95 345.023 18.4603 345.021 18.9931ZM345.41 18.9931C345.409 18.6722 345.502 18.3581 345.677 18.0905C345.852 17.823 346.102 17.614 346.395 17.4901C346.688 17.3662 347.011 17.333 347.323 17.3947C347.634 17.4563 347.921 17.6101 348.146 17.8364C348.371 18.0628 348.525 18.3515 348.587 18.6662C348.65 18.9808 348.618 19.3071 348.497 19.6037C348.376 19.9003 348.17 20.1539 347.906 20.3324C347.642 20.5108 347.332 20.6061 347.014 20.6061C346.59 20.6061 346.184 20.4364 345.883 20.1341C345.582 19.8319 345.413 19.4216 345.41 18.9931Z"></path>
    </g>
  </symbol>
  <symbol xmlns="http://www.w3.org/2000/svg" viewBox="0 0 22 22" id="microphone">
    <g>
      <path fill-rule="evenodd" clip-rule="evenodd" d="M3.83638 10.0135C4.38122 9.92313 4.89617 10.2915 4.98655 10.8364C5.39183 13.2795 7.81467 16 11 16C14.1862 16 16.6114 13.2787 17.0133 10.8376C17.103 10.2926 17.6175 9.9236 18.1625 10.0133C18.7074 10.103 19.0765 10.6175 18.9868 11.1625C18.4966 14.1401 15.8084 17.4347 12 17.935V21C12 21.5523 11.5523 22 11 22C10.4477 22 10 21.5523 10 21V17.935C6.19161 17.4347 3.50717 14.1395 3.01352 11.1637C2.92313 10.6188 3.29154 10.1039 3.83638 10.0135Z"></path>
      <path fill-rule="evenodd" clip-rule="evenodd" d="M7 4C7 1.79086 8.79086 0 11 0C13.2091 0 15 1.79086 15 4V10C15 12.2091 13.2091 14 11 14C8.79086 14 7 12.2091 7 10V4ZM11 2C9.89543 2 9 2.89543 9 4V10C9 11.1046 9.89543 12 11 12C12.1046 12 13 11.1046 13 10V4C13 2.89543 12.1046 2 11 2Z"></path>
    </g>
  </symbol>
  <symbol xmlns="http://www.w3.org/2000/svg" viewBox="0 0 17 16" id="search">
    <path fill-rule="evenodd" clip-rule="evenodd" d="M0.75 6.02293C0.75 2.72402 3.42421 0.0499878 6.72327 0.0499878C10.0223 0.0499878 12.6965 2.72402 12.6965 6.02293C12.6965 7.42365 12.211 8.70903 11.4038 9.72688L11.4119 9.73497H12.0081C12.0745 9.73497 12.1381 9.76139 12.185 9.8084L16.2242 13.8571C16.5166 14.1501 16.5163 14.6245 16.2236 14.9172L15.6172 15.5235C15.3245 15.8162 14.8499 15.8164 14.557 15.5239L10.5098 11.4826C10.4628 11.4357 10.4364 11.372 10.4364 11.3056V10.7124L10.4278 10.7038C9.40974 11.5107 8.1246 11.9959 6.72327 11.9959C3.42421 11.9959 0.75 9.32184 0.75 6.02293ZM6.72328 2.3109C4.67244 2.3109 3.01101 3.97306 3.01101 6.02294C3.01101 8.07366 4.6724 9.73498 6.72328 9.73498C8.77331 9.73498 10.4355 8.07362 10.4355 6.02294C10.4355 3.9731 8.77327 2.3109 6.72328 2.3109Z"></path>
  </symbol>
</svg>